<?xml version="1.0" encoding="UTF-8"?>
<!DOCTYPE svg PUBLIC "-//W3C//DTD SVG 1.1//EN" "http://www.w3.org/Graphics/SVG/1.1/DTD/svg11.dtd">
<!-- Creator: CorelDRAW X8 -->
<svg xmlns="http://www.w3.org/2000/svg" xml:space="preserve" width="100%" height="100%" version="1.1" style="shape-rendering:geometricPrecision; text-rendering:geometricPrecision; image-rendering:optimizeQuality; fill-rule:evenodd; clip-rule:evenodd"
viewBox="0 0 4400 2000"
 xmlns:xlink="http://www.w3.org/1999/xlink">
 <defs>
  <style type="text/css">
   <![CDATA[
    .str0 {stroke:#CCCCCC;stroke-width:20}
    .fil3 {fill:none}
    .fil0 {fill:#50DE50}
    .fil2 {fill:#FAA8B1}
    .fil1 {fill:#1A1A1A;fill-rule:nonzero}
    .fil4 {fill:#CCCCCC;fill-rule:nonzero}
   ]]>
  </style>
 </defs>
 <g id="Слой_x0020_1">
  <metadata id="CorelCorpID_0Corel-Layer"/>
  <g id="_1302865470400">
   <path class="fil0" d="M560 942c35,-131 -43,-265 -174,-300 -131,-36 -265,42 -300,173 -35,131 42,266 173,301 131,35 266,-43 301,-174zm-107 -28c20,-72 -23,-146 -95,-166 -72,-19 -146,24 -166,96 -19,72 24,146 96,165 72,20 146,-23 165,-95z"/>
   <path class="fil1" d="M1132 706c0,17 -3,32 -7,45 -5,12 -12,23 -20,32 -9,10 -19,17 -31,24 -12,6 -25,12 -39,17l0 3c17,5 34,11 48,19 15,8 28,18 38,29 11,11 19,25 25,40 6,15 9,32 9,51 0,50 -19,88 -56,113 -36,25 -91,38 -165,38l-249 0 0 -41 32 0c6,0 11,-1 16,-2 5,-1 9,-3 13,-7 3,-4 6,-9 8,-15 2,-7 4,-15 4,-26l0 -370c0,-10 -2,-19 -4,-25 -2,-7 -5,-12 -8,-15 -4,-4 -8,-6 -13,-7 -5,-2 -10,-3 -16,-3l-32 0 0 -40 226 0c73,0 128,11 165,34 37,22 56,58 56,106zm-253 364l51 0c17,0 32,-2 44,-6 12,-4 22,-10 29,-18 8,-9 13,-20 17,-33 3,-14 5,-30 5,-50 0,-19 -2,-35 -5,-49 -3,-14 -8,-26 -15,-35 -7,-9 -17,-16 -29,-20 -11,-5 -26,-7 -44,-7l-53 0 0 218zm0 -265l30 0c18,0 33,-2 45,-6 12,-3 21,-9 28,-17 8,-8 13,-18 16,-31 3,-12 4,-28 4,-45 0,-18 -2,-32 -5,-44 -3,-12 -9,-22 -16,-29 -8,-7 -18,-13 -30,-16 -12,-3 -27,-4 -44,-4l-28 0 0 192z"/>
   <path id="1" class="fil1" d="M1337 1002c0,22 4,39 11,50 7,11 18,16 33,16 11,0 21,-2 30,-7 9,-4 16,-11 23,-20 6,-8 11,-18 14,-31 4,-12 5,-25 5,-41l0 -58 -34 3c-16,0 -28,3 -39,7 -10,4 -19,10 -25,17 -6,7 -11,16 -14,27 -3,10 -4,23 -4,37zm69 -262c-10,0 -18,2 -25,6 -7,5 -12,10 -16,18 -4,7 -7,16 -9,26 -1,10 -2,21 -2,34 -35,0 -61,-4 -78,-12 -18,-8 -26,-21 -26,-40 0,-14 4,-26 12,-36 9,-10 20,-19 35,-25 14,-6 31,-11 50,-14 19,-2 40,-4 62,-4 27,0 50,2 71,7 20,5 37,12 50,23 14,10 24,23 30,40 7,17 11,37 11,61l0 197c0,11 0,19 2,26 2,7 4,13 8,17 3,4 8,7 14,9 6,2 13,3 22,3l3 0 0 41 -143 0 -17 -53 -7 0c-8,10 -16,19 -24,27 -7,7 -15,14 -24,19 -8,5 -18,9 -29,11 -10,2 -23,3 -37,3 -17,0 -33,-2 -48,-7 -15,-5 -28,-13 -39,-23 -10,-11 -19,-24 -25,-40 -7,-15 -10,-34 -10,-55 0,-42 15,-73 43,-93 29,-21 72,-31 130,-33l63 -2 0 -43c0,-13 0,-25 -1,-35 -1,-11 -3,-21 -6,-28 -4,-8 -9,-14 -15,-18 -6,-5 -15,-7 -25,-7z"/>
   <path id="2" class="fil1" d="M1873 1124c-29,0 -55,-3 -78,-11 -24,-7 -44,-19 -61,-36 -17,-16 -30,-38 -39,-66 -9,-27 -14,-60 -14,-100 0,-41 5,-76 15,-104 9,-28 23,-50 40,-67 16,-17 36,-29 60,-36 23,-7 48,-11 74,-11 25,0 47,2 66,6 19,5 35,10 48,18 13,7 22,15 29,25 7,10 10,21 10,32 0,8 -1,16 -4,24 -3,8 -8,15 -16,21 -7,6 -17,11 -30,15 -13,4 -30,6 -50,6 0,-14 -1,-26 -2,-38 -2,-12 -5,-23 -8,-32 -4,-9 -9,-16 -16,-22 -6,-5 -14,-8 -24,-8 -11,0 -21,3 -30,8 -9,6 -17,15 -23,28 -6,13 -11,31 -15,52 -3,22 -5,50 -5,83 0,52 7,91 22,117 14,26 37,39 70,39 13,0 26,-2 37,-5 12,-3 23,-7 32,-13 10,-6 18,-12 25,-20 7,-8 13,-16 18,-25 6,4 11,9 14,15 3,7 4,14 4,21 0,9 -3,19 -8,29 -6,10 -15,20 -27,28 -13,8 -28,15 -47,20 -19,5 -41,7 -67,7z"/>
   <path id="3" class="fil1" d="M2542 1117l-11 0c-28,0 -52,-1 -71,-2 -19,-1 -35,-4 -49,-9 -14,-4 -26,-11 -36,-20 -10,-10 -20,-22 -30,-38l-68 -108 -31 23 0 63c0,11 1,19 5,26 4,6 8,11 14,15 5,4 11,6 18,7 6,1 12,2 18,2l9 0 0 41 -246 0 0 -41 9 0c6,0 12,-1 19,-2 6,-1 12,-3 17,-7 6,-4 10,-9 14,-15 4,-7 6,-15 6,-26l0 -408c0,-10 -2,-18 -6,-25 -4,-6 -8,-10 -14,-14 -5,-3 -11,-5 -18,-7 -6,-1 -12,-1 -18,-1l-9 0 0 -41 182 0 0 298c0,7 0,15 -1,24 0,10 -1,18 -1,27 -1,9 -2,19 -2,29l97 -108c9,-10 14,-18 17,-23 2,-6 4,-11 4,-14 0,-7 -4,-12 -11,-16 -6,-3 -16,-5 -29,-5l0 -39 194 0 0 39c-18,0 -35,5 -52,16 -18,10 -36,27 -57,49l-48 56 102 153c14,20 28,35 41,45 14,10 27,15 39,15l3 0 0 41z"/>
   <path id="4" class="fil1" d="M3008 571l107 295c4,12 8,24 12,36 4,13 8,25 11,36 3,11 6,22 9,31 2,10 4,18 5,25 2,-9 5,-20 7,-31 2,-11 5,-23 7,-36 3,-12 6,-25 9,-38 2,-13 5,-26 8,-38l41 -167c1,-2 2,-6 3,-10 0,-4 1,-8 2,-12 1,-4 1,-7 2,-11 0,-3 0,-6 0,-8 0,-13 -4,-23 -12,-28 -8,-6 -20,-9 -37,-9l-18 0 0 -40 201 0 0 40 -14 0c-8,0 -15,1 -20,3 -6,1 -11,4 -16,9 -4,4 -8,10 -12,18 -4,8 -7,18 -11,31l-120 450 -87 0 -130 -362 -111 362 -96 0 -141 -469c-2,-9 -5,-15 -8,-20 -4,-6 -7,-10 -12,-13 -4,-3 -9,-5 -15,-7 -5,-1 -12,-2 -20,-2l-10 0 0 -40 258 0 0 40 -18 0c-15,0 -27,4 -35,10 -7,6 -11,15 -11,28 0,4 1,10 2,18 2,9 4,16 6,23l51 179c3,9 6,20 9,31 3,12 6,23 9,35 3,12 5,23 8,34 2,10 4,20 5,28 3,-16 7,-32 11,-46 4,-15 8,-29 13,-44l102 -331 56 0z"/>
   <path id="5" class="fil1" d="M3482 1002c0,22 3,39 10,50 7,11 18,16 33,16 11,0 21,-2 30,-7 9,-4 17,-11 23,-20 7,-8 12,-18 15,-31 3,-12 5,-25 5,-41l0 -58 -35 3c-15,0 -28,3 -38,7 -11,4 -19,10 -26,17 -6,7 -11,16 -13,27 -3,10 -4,23 -4,37zm68 -262c-10,0 -18,2 -24,6 -7,5 -12,10 -17,18 -4,7 -6,16 -8,26 -2,10 -3,21 -3,34 -34,0 -60,-4 -78,-12 -17,-8 -26,-21 -26,-40 0,-14 4,-26 13,-36 8,-10 20,-19 34,-25 15,-6 31,-11 51,-14 19,-2 39,-4 61,-4 27,0 51,2 71,7 20,5 37,12 51,23 13,10 23,23 30,40 7,17 10,37 10,61l0 197c0,11 1,19 3,26 1,7 4,13 7,17 4,4 9,7 15,9 6,2 13,3 21,3l4 0 0 41 -144 0 -16 -53 -7 0c-9,10 -17,19 -24,27 -8,7 -16,14 -24,19 -9,5 -18,9 -29,11 -11,2 -23,3 -38,3 -17,0 -33,-2 -48,-7 -14,-5 -27,-13 -38,-23 -11,-11 -20,-24 -26,-40 -6,-15 -9,-34 -9,-55 0,-42 14,-73 43,-93 29,-21 72,-31 130,-33l63 -2 0 -43c0,-13 0,-25 -2,-35 -1,-11 -3,-21 -6,-28 -3,-8 -8,-14 -14,-18 -7,-5 -15,-7 -26,-7z"/>
   <path id="6" class="fil1" d="M4221 703l0 41c-8,0 -15,1 -21,3 -6,2 -11,5 -16,9 -5,4 -9,10 -13,17 -4,8 -8,17 -12,27 -9,26 -19,52 -28,79 -10,26 -20,53 -30,80 -10,26 -20,53 -30,80 -9,26 -19,52 -28,78 -9,25 -18,46 -26,65 -8,19 -16,35 -25,49 -9,14 -19,25 -30,34 -11,9 -23,17 -38,22 -14,5 -31,9 -50,12 -19,2 -41,3 -66,3l-13 0 0 -45c27,0 49,-3 68,-10 19,-6 35,-16 48,-28 13,-12 24,-26 32,-43 9,-17 16,-35 22,-56l-139 -339c-3,-7 -6,-13 -10,-17 -3,-4 -8,-8 -12,-10 -4,-2 -9,-4 -14,-4 -5,-1 -10,-1 -16,-1l0 -46 220 0 0 41c-15,0 -27,2 -35,6 -9,4 -13,12 -13,23 0,4 0,9 2,15 2,6 4,11 5,15 4,10 9,22 14,35 5,13 10,25 14,38 5,13 10,25 14,36 4,12 8,23 11,32 4,10 7,18 9,26 3,8 5,15 7,22 1,6 3,12 4,18 1,5 1,10 2,16 0,-6 1,-12 3,-18 1,-6 3,-13 5,-18 2,-6 3,-12 5,-16 2,-5 3,-8 4,-10l51 -151c1,-3 2,-6 3,-9 0,-4 1,-7 2,-10 1,-4 1,-7 2,-11 0,-3 0,-6 0,-8 0,-12 -5,-20 -14,-24 -10,-5 -24,-7 -42,-7l0 -41 174 0z"/>
   <path class="fil2" d="M707 151l-230 0c-56,0 -108,23 -145,60 -37,37 -60,89 -60,145l0 115 -56 0 107 105 107 -105 -56 0 0 -115c0,-28 12,-54 30,-73 19,-19 45,-30 73,-30l230 0c25,62 93,97 160,79 72,-19 114,-93 95,-165 -19,-72 -93,-115 -165,-96 -43,12 -75,42 -90,80z"/>
  </g>
  <line class="fil3 str0" x1="77" y1="1463" x2="4334" y2= "1463" />
  <path class="fil4" d="M1812 1706c30,7 46,21 46,42 0,14 -6,26 -19,35 -12,10 -29,14 -49,14 -19,0 -35,-5 -46,-15 -11,-10 -16,-24 -16,-43 0,-30 9,-57 26,-80 18,-23 40,-35 67,-35 14,0 25,3 34,10 9,7 14,15 14,26 0,23 -19,39 -57,46zm-46 -7l3 0c21,0 38,-3 50,-10 12,-6 18,-15 18,-27 0,-8 -3,-14 -7,-18 -4,-4 -9,-6 -16,-6 -9,0 -19,6 -28,18 -10,12 -16,27 -20,43zm-3 14c-2,9 -3,18 -3,29 0,25 11,37 32,37 11,0 20,-2 26,-8 7,-6 10,-14 10,-24 0,-11 -5,-20 -14,-26 -9,-6 -16,-10 -20,-10l-31 2z"/>
  <path id="1" class="fil4" d="M2001 1755c2,2 3,4 3,8 0,8 -5,16 -15,23 -10,8 -23,11 -39,11 -18,0 -33,-5 -44,-17 -11,-11 -17,-27 -17,-47 0,-27 9,-52 26,-75 18,-23 40,-34 67,-34 13,0 23,3 31,9 7,7 10,15 10,27 0,16 -8,31 -26,43 -17,13 -39,19 -64,19l-6 0c-1,0 -3,0 -5,0 -1,3 -1,7 -1,13 0,28 12,43 34,43 18,0 33,-8 46,-23zm-76 -47l3 0c18,0 33,-4 45,-14 12,-9 18,-20 18,-35 0,-14 -6,-21 -18,-21 -10,0 -19,6 -28,19 -9,13 -16,30 -20,51z"/>
  <path id="2" class="fil4" d="M2089 1856l-3 13 -59 0 42 -198c1,-8 2,-14 2,-16 0,-10 -7,-15 -21,-15l-3 0 3 -13 55 0 -7 42 1 0c15,-30 34,-45 57,-45 13,0 23,5 30,14 6,10 10,24 10,42 0,28 -9,55 -26,80 -18,25 -40,37 -67,37 -12,0 -22,-2 -31,-7 -1,7 -1,12 -2,15l-4 19c-2,9 -3,15 -3,18 0,9 7,14 21,14l5 0zm-12 -84c7,8 15,11 25,11 17,0 32,-11 44,-34 12,-23 18,-46 18,-69 0,-24 -7,-36 -20,-36 -11,0 -21,7 -32,22 -11,15 -18,31 -22,47l-13 59z"/>
  <path id="3" class="fil4" d="M2390 1627l-23 104c-3,12 -4,23 -4,32 0,10 4,15 11,15 5,0 12,-3 19,-7l6 9c-13,12 -27,17 -40,17 -8,0 -15,-2 -20,-8 -5,-6 -7,-13 -7,-21 0,-8 1,-18 3,-28l5 -25 -71 0 -17 79 -29 0 26 -125c1,-6 2,-11 2,-14 0,-10 -7,-15 -22,-15l-2 0 3 -13 57 0 -16 74 73 0 15 -74 31 0z"/>
  <path id="4" class="fil4" d="M2530 1755c3,2 4,4 4,8 0,8 -5,16 -15,23 -10,8 -23,11 -39,11 -19,0 -33,-5 -44,-17 -12,-11 -17,-27 -17,-47 0,-27 9,-52 26,-75 18,-23 40,-34 67,-34 13,0 23,3 30,9 8,7 11,15 11,27 0,16 -9,31 -26,43 -18,13 -39,19 -64,19l-6 0c-2,0 -3,0 -5,0 -1,3 -1,7 -1,13 0,28 11,43 34,43 18,0 33,-8 45,-23zm-75 -47l3 0c18,0 33,-4 45,-14 12,-9 18,-20 18,-35 0,-14 -6,-21 -18,-21 -10,0 -20,6 -28,19 -9,13 -16,30 -20,51z"/>
  <path id="5" class="fil4" d="M2784 1665l-2 0 -89 129 -14 0 -19 -124c-2,4 -4,10 -6,17 -11,30 -20,53 -26,68 -6,14 -14,25 -21,31 -8,7 -17,10 -27,10 -7,0 -12,-2 -15,-6 -3,-4 -5,-9 -5,-15 0,-5 2,-10 5,-14 3,-4 7,-5 12,-5 0,3 1,7 4,10 2,3 5,4 9,4 5,0 12,-5 18,-14 7,-9 16,-32 29,-69 7,-20 12,-33 16,-38 -4,-6 -13,-9 -24,-9l-5 0 3 -13 56 0 19 126 88 -126 55 0 -2 13 -1 0c-9,0 -16,2 -20,6 -3,3 -6,8 -7,15l-15 70c-3,13 -4,24 -4,32 0,10 4,15 11,15 5,0 12,-3 19,-7l6 9c-13,12 -27,17 -40,17 -8,0 -15,-2 -20,-8 -5,-6 -7,-13 -7,-21 0,-8 1,-18 3,-28l16 -75z"/>
  <path id="6" class="fil4" d="M2964 1794l-29 0 26 -125c1,-6 2,-11 2,-14 0,-10 -8,-15 -22,-15l-3 0 3 -13 58 0 -9 39 3 0c17,-28 36,-42 57,-42 23,0 34,12 34,35 0,6 -2,18 -6,34l-8 37c-3,12 -4,23 -4,33 0,10 4,15 11,15 6,0 12,-3 20,-8l5 10c-13,11 -26,17 -38,17 -8,0 -15,-3 -20,-8 -5,-6 -8,-13 -8,-23 0,-9 2,-23 6,-42l7 -32c3,-13 5,-23 5,-30 0,-12 -5,-18 -15,-18 -11,0 -23,8 -35,23 -12,16 -20,32 -24,47l-16 80z"/>
  <path id="7" class="fil4" d="M3167 1856l-3 13 -58 0 41 -198c2,-8 3,-14 3,-16 0,-10 -8,-15 -22,-15l-3 0 3 -13 55 0 -7 42 2 0c15,-30 34,-45 57,-45 12,0 22,5 29,14 7,10 10,24 10,42 0,28 -9,55 -26,80 -17,25 -40,37 -67,37 -12,0 -22,-2 -30,-7 -1,7 -2,12 -3,15l-4 19c-2,9 -3,15 -3,18 0,9 7,14 22,14l4 0zm-11 -84c6,8 15,11 24,11 18,0 32,-11 44,-34 12,-23 18,-46 18,-69 0,-24 -6,-36 -19,-36 -11,0 -22,7 -33,22 -11,15 -18,31 -22,47l-12 59z"/>
  <path id="8" class="fil4" d="M3394 1624c18,0 33,5 43,17 11,11 16,27 16,47 0,28 -8,53 -25,76 -17,22 -39,33 -67,33 -19,0 -34,-5 -44,-17 -11,-11 -16,-27 -16,-47 0,-28 9,-53 26,-76 17,-22 39,-33 67,-33zm-30 157c18,0 31,-10 42,-30 10,-20 15,-43 15,-68 0,-29 -10,-43 -31,-43 -17,0 -30,10 -41,30 -10,21 -16,43 -16,68 0,29 11,43 31,43z"/>
  <path id="9" class="fil4" d="M3671 1755c-16,28 -35,42 -56,42 -23,0 -34,-12 -34,-35 0,-2 0,-5 1,-7l-3 0c-17,28 -36,42 -57,42 -22,0 -33,-12 -33,-35 0,-5 1,-14 4,-25l14 -68c1,-6 2,-10 2,-14 0,-10 -7,-15 -22,-15l-2 0 2 -13 58 0 -20 93c-4,21 -6,34 -6,39 0,12 4,18 14,18 11,0 22,-7 33,-20 11,-14 19,-28 24,-43l18 -87 29 0 -20 92c-4,19 -6,32 -6,40 0,12 5,18 14,18 12,0 24,-8 36,-23 12,-16 20,-32 23,-47l17 -80 29 0 -21 100c-3,14 -5,26 -5,35 0,10 4,16 10,16 6,0 13,-3 20,-7l6 9c-13,12 -26,17 -40,17 -7,0 -14,-2 -19,-8 -5,-5 -7,-12 -7,-21 0,-4 0,-8 1,-13l-4 0z"/>
  <path id="10" class="fil4" d="M3764 1756c0,3 1,7 3,10 2,3 5,4 9,4 7,0 14,-6 21,-17 6,-12 16,-36 29,-72 9,-26 18,-42 26,-48 7,-5 18,-8 30,-8 14,0 30,2 48,5l-21 101c-3,13 -4,23 -4,32 0,10 4,15 11,15 5,0 12,-3 19,-7l6 9c-13,12 -27,17 -40,17 -8,0 -15,-2 -20,-8 -5,-6 -7,-13 -7,-21 0,-8 1,-18 3,-28l21 -98c-5,-2 -11,-3 -16,-3 -11,0 -20,4 -25,12 -5,7 -14,28 -26,62 -11,29 -20,51 -29,64 -10,13 -22,19 -36,19 -6,0 -11,-2 -15,-6 -3,-4 -5,-9 -5,-15 0,-5 2,-10 5,-14 4,-4 8,-5 13,-5z"/>
  <path id="11" class="fil4" d="M4052 1624c19,0 33,5 44,17 10,11 15,27 15,47 0,28 -8,53 -25,76 -17,22 -39,33 -67,33 -19,0 -33,-5 -44,-17 -11,-11 -16,-27 -16,-47 0,-28 9,-53 26,-76 17,-22 39,-33 67,-33zm-30 157c18,0 32,-10 42,-30 10,-20 15,-43 15,-68 0,-29 -10,-43 -30,-43 -18,0 -31,10 -42,30 -10,21 -16,43 -16,68 0,29 11,43 31,43z"/>
  <path id="12" class="fil4" d="M4250 1755c2,2 3,4 3,8 0,8 -5,16 -15,23 -9,8 -23,11 -39,11 -18,0 -33,-5 -44,-17 -11,-11 -17,-27 -17,-47 0,-27 9,-52 27,-75 17,-23 39,-34 66,-34 13,0 23,3 31,9 7,7 11,15 11,27 0,16 -9,31 -27,43 -17,13 -39,19 -64,19l-5 0c-2,0 -4,0 -6,0 0,3 -1,7 -1,13 0,28 12,43 35,43 18,0 33,-8 45,-23zm-76 -47l3 0c18,0 34,-4 46,-14 12,-9 18,-20 18,-35 0,-14 -7,-21 -19,-21 -10,0 -19,6 -28,19 -9,13 -15,30 -20,51z"/>
  <rect class="fil3" width="4400" height="2000"/>
 </g>
</svg>
